<svg width="100" height="100" viewBox="0 0 100 100" fill="none" xmlns="http://www.w3.org/2000/svg">
  <defs>
    <linearGradient id="gold" x1="0%" y1="0%" x2="100%" y2="100%">
      <stop offset="0%" stop-color="#FFE680"/>
      <stop offset="50%" stop-color="#FFD700"/>
      <stop offset="100%" stop-color="#B0830C"/>
    </linearGradient>
    <radialGradient id="dark" cx="50%" cy="40%" r="60%">
      <stop offset="0%" stop-color="#1A1A24"/>
      <stop offset="100%" stop-color="#050507"/>
    </radialGradient>
  </defs>
  <!-- Hex frame -->
  <path d="M50 4 L88 25 L88 75 L50 96 L12 75 L12 25 Z" stroke="url(#gold)" stroke-width="3" fill="url(#dark)"/>
  <!-- Inner hex -->
  <path d="M50 12 L80 28 L80 72 L50 88 L20 72 L20 28 Z" stroke="url(#gold)" stroke-width="0.8" stroke-opacity="0.4" fill="none"/>
  <!-- Pitch lines -->
  <line x1="20" y1="50" x2="80" y2="50" stroke="url(#gold)" stroke-width="0.6" stroke-opacity="0.5"/>
  <circle cx="50" cy="50" r="10" stroke="url(#gold)" stroke-width="0.8" stroke-opacity="0.6" fill="none"/>
  <!-- Formation dots (4-3-3) -->
  <circle cx="38" cy="32" r="1.8" fill="url(#gold)"/>
  <circle cx="50" cy="29" r="1.8" fill="url(#gold)"/>
  <circle cx="62" cy="32" r="1.8" fill="url(#gold)"/>
  <circle cx="38" cy="48" r="1.8" fill="url(#gold)"/>
  <circle cx="50" cy="45" r="2" fill="url(#gold)"/>
  <circle cx="62" cy="48" r="1.8" fill="url(#gold)"/>
  <circle cx="30" cy="65" r="1.8" fill="url(#gold)"/>
  <circle cx="43" cy="67" r="1.8" fill="url(#gold)"/>
  <circle cx="57" cy="67" r="1.8" fill="url(#gold)"/>
  <circle cx="70" cy="65" r="1.8" fill="url(#gold)"/>
  <circle cx="50" cy="80" r="2" fill="url(#gold)"/>
  <!-- Center football -->
  <circle cx="50" cy="50" r="3.5" fill="url(#gold)"/>
  <path d="M50 48 L51.5 49.5 L51 51.5 L49 51.5 L48.5 49.5 Z" fill="#0A0A0F"/>
</svg>
